<svg width="16" height="16" viewBox="0 0 16 16" fill="none" xmlns="http://www.w3.org/2000/svg">
<path d="M9.35046 12.4618L8.87832 12.0915L9.35046 12.4618ZM5.83219 12.4618L5.36005 12.832L5.83219 12.4618ZM7.59132 13.9199V13.3199V13.9199ZM12.0521 6.0777C12.0521 6.81892 11.6622 7.83278 11.027 8.9558C10.405 10.0553 9.59987 11.1714 8.87832 12.0915L9.8226 12.832C10.5622 11.8889 11.4079 10.7198 12.0715 9.5466C12.7218 8.39684 13.2521 7.1503 13.2521 6.0777H12.0521ZM6.30433 12.0915C5.58278 11.1714 4.7776 10.0553 4.15567 8.9558C3.52045 7.83278 3.13052 6.81892 3.13052 6.0777H1.93052C1.93052 7.1503 2.46084 8.39684 3.11118 9.5466C3.77479 10.7198 4.62045 11.8889 5.36005 12.832L6.30433 12.0915ZM3.13052 6.0777C3.13052 3.35921 5.16837 1.23184 7.59132 1.23184V0.031836C4.42427 0.031836 1.93052 2.78086 1.93052 6.0777H3.13052ZM7.59132 1.23184C10.0143 1.23184 12.0521 3.35921 12.0521 6.0777H13.2521C13.2521 2.78086 10.7584 0.031836 7.59132 0.031836V1.23184ZM8.87832 12.0915C8.48401 12.5943 8.23363 12.9104 8.01247 13.1113C7.817 13.2888 7.70521 13.3199 7.59132 13.3199V14.5199C8.09311 14.5199 8.47973 14.308 8.81933 13.9995C9.13324 13.7144 9.4546 13.3013 9.8226 12.832L8.87832 12.0915ZM5.36005 12.832C5.72805 13.3013 6.04941 13.7144 6.36332 13.9995C6.70292 14.308 7.08954 14.5199 7.59132 14.5199V13.3199C7.47744 13.3199 7.36565 13.2888 7.17018 13.1113C6.94902 12.9104 6.69864 12.5943 6.30433 12.0915L5.36005 12.832ZM5.09352 6.32524C5.09352 7.70474 6.21183 8.82305 7.59132 8.82305V7.62305C6.87457 7.62305 6.29352 7.042 6.29352 6.32524H5.09352ZM7.59132 8.82305C8.97082 8.82305 10.0891 7.70474 10.0891 6.32524H8.88913C8.88913 7.042 8.30808 7.62305 7.59132 7.62305V8.82305ZM10.0891 6.32524C10.0891 4.94575 8.97082 3.82744 7.59132 3.82744V5.02744C8.30808 5.02744 8.88913 5.60849 8.88913 6.32524H10.0891ZM7.59132 3.82744C6.21183 3.82744 5.09352 4.94575 5.09352 6.32524H6.29352C6.29352 5.60849 6.87457 5.02744 7.59132 5.02744V3.82744Z" fill="#3B3B3B"/>
</svg>
